<svg width="39" height="40" viewBox="0 0 39 40" fill="none" xmlns="http://www.w3.org/2000/svg">
<rect width="38.875" height="40" rx="8" fill="url(#paint0_linear_23_3351)"/>
<path d="M28.2142 17.718C25.8956 12.822 20.0866 10.7137 15.2396 13.009C10.3926 15.3043 8.34224 21.1343 10.6609 26.0303C12.9796 30.9263 18.7886 33.0347 23.6356 30.7393C28.4826 28.444 30.5329 22.614 28.2142 17.718ZM23.4509 30.349C19.9266 32.0177 15.2729 29.5763 13.0566 24.8957C10.8402 20.215 11.9002 15.0683 15.4242 13.3993C18.9482 11.7303 23.6022 14.172 25.8186 18.8527C28.0349 23.5333 26.9749 28.68 23.4509 30.349Z" fill="white"/>
<path d="M14.1243 11.1349C14.4376 9.45252 15.1213 8.33252 16.6489 8.33252C18.5489 8.33252 21.2289 10.0759 22.7869 10.0759C23.7536 10.0759 24.1586 9.45419 24.4706 8.33252L24.7509 8.39352C24.4389 10.0759 23.7539 11.1972 22.2263 11.1972C20.3263 11.1972 17.6766 9.45419 16.0869 9.45419C15.1203 9.45419 14.7166 10.0759 14.4046 11.1972L14.1243 11.1349Z" fill="white"/>
<defs>
<linearGradient id="paint0_linear_23_3351" x1="19.4375" y1="0" x2="19.4375" y2="40" gradientUnits="userSpaceOnUse">
<stop stop-color="#4A90D9"/>
<stop offset="1" stop-color="#001354"/>
</linearGradient>
</defs>
</svg>
